<?xml version="1.0" encoding="UTF-8" standalone="no"?><!DOCTYPE svg PUBLIC "-//W3C//DTD SVG 1.1//EN" "http://www.w3.org/Graphics/SVG/1.1/DTD/svg11.dtd"><svg width="100%" height="100%" viewBox="0 0 4243 3000" version="1.1" xmlns="http://www.w3.org/2000/svg" xmlns:xlink="http://www.w3.org/1999/xlink" xml:space="preserve" xmlns:serif="http://www.serif.com/" style="fill-rule:evenodd;clip-rule:evenodd;stroke-linejoin:round;stroke-miterlimit:2;"><rect id="Artboard2" x="0" y="0" width="4242.424" height="3000" style="fill:none;"/><path d="M1272.763,2327.422c-1.221,-0 -2.211,-0.99 -2.211,-2.211c-0,-64.764 -0,-1530.317 -0,-1530.317l749.94,627.506l494.802,-307.626l89.539,63.035l2.287,616.959l-159.844,0l-20.406,-411.513l-397.875,207.457l-598.598,-476.131l13.604,1212.841l-171.236,0Z" style="fill:url(#_Linear1);"/><path d="M1479.918,1337.75l0,989.672l120.733,0l455.492,-345.195l316.466,345.195l142.684,0l-446.345,-503.338l-442.792,292.984l10.95,-679.712l-157.189,-99.606Z" style="fill:url(#_Linear2);"/><g><path d="M2092.549,1828.536l142.913,160.552l128.263,-21.679l-123.282,-148.816l-147.893,9.944" style="fill:url(#_Linear3);"/><path d="M2243.097,1999.59l126.322,148.243l107.95,-44.254l-103.826,-126.936l-130.446,22.947Z" style="fill:url(#_Linear4);"/><path d="M2379.214,2154.851l143.606,160.213l94.149,-58.385l-129.696,-144.793l-108.059,42.964Z" style="fill:url(#_Linear5);"/><path d="M2500.705,2107.879l125.168,139.643l75.268,-52.065l-108.977,-123.942l-91.459,36.364Z" style="fill:url(#_Linear6);"/><path d="M2603.59,2068.626l107.016,120.98l46.733,-32.632l-92.489,-111.133l-61.26,22.786Z" style="fill:url(#_Linear7);"/><path d="M2383.725,1972.331l102.763,125.959l93.798,-35.323l-80.71,-115.093l-115.851,24.458Z" style="fill:url(#_Linear8);"/><path d="M2512.613,1946.054l77.301,113.495l67.082,-23.052l-75.752,-106.55l-71.249,13.767" style="fill:url(#_Linear9);"/><path d="M2260.198,1817.488l115.467,143.672l117.517,-24.141l-112.779,-126.25l-120.205,6.719Z" style="fill:url(#_Linear10);"/><path d="M2399.203,1809.719l103.979,122.17l69.083,-12.433l-86.469,-114.577l-86.593,4.84Z" style="fill:url(#_Linear11);"/></g><rect x="2006.747" y="2134.081" width="42.478" height="41.294" style="fill:#12355b;"/><rect x="2068.263" y="2134.081" width="42.478" height="41.294" style="fill:#12355b;"/><rect x="2006.747" y="2186.482" width="42.478" height="41.294" style="fill:#12355b;"/><rect x="2068.263" y="2186.482" width="42.478" height="41.294" style="fill:#12355b;"/><path d="M2059.575,909.185c105.326,-143.526 274.137,-236.607 464.275,-236.607c318.907,0 577.818,261.85 577.818,584.375c0,322.526 -258.912,584.375 -577.818,584.375c-3.333,0 -6.659,-0.029 -9.979,-0.086c324.584,-146.575 494.758,-474.192 380.072,-734.195c-115.467,-261.773 -476.241,-356.514 -805.147,-211.435c-9.882,4.359 -19.623,8.885 -29.22,13.571Z" style="fill:url(#_Linear12);"/><defs><linearGradient id="_Linear1" x1="0" y1="0" x2="1" y2="0" gradientUnits="userSpaceOnUse" gradientTransform="matrix(1015.562571,1015.562571,-1015.562571,1015.562571,1270.55162,794.893267)"><stop offset="0" style="stop-color:#02060e;stop-opacity:1"/><stop offset="1" style="stop-color:#0356c5;stop-opacity:1"/></linearGradient><linearGradient id="_Linear2" x1="0" y1="0" x2="1" y2="0" gradientUnits="userSpaceOnUse" gradientTransform="matrix(984.162365,984.162365,-984.162365,984.162365,1479.91767,1337.750257)"><stop offset="0" style="stop-color:#02060e;stop-opacity:1"/><stop offset="1" style="stop-color:#0356c5;stop-opacity:1"/></linearGradient><linearGradient id="_Linear3" x1="0" y1="0" x2="1" y2="0" gradientUnits="userSpaceOnUse" gradientTransform="matrix(496.471865,496.471865,-496.471865,496.471865,2092.548734,1818.592407)"><stop offset="0" style="stop-color:#0d0551;stop-opacity:1"/><stop offset="1" style="stop-color:#9584b3;stop-opacity:1"/></linearGradient><linearGradient id="_Linear4" x1="0" y1="0" x2="1" y2="0" gradientUnits="userSpaceOnUse" gradientTransform="matrix(496.471865,496.471865,-496.471865,496.471865,2092.548734,1818.592407)"><stop offset="0" style="stop-color:#0d0551;stop-opacity:1"/><stop offset="1" style="stop-color:#9584b3;stop-opacity:1"/></linearGradient><linearGradient id="_Linear5" x1="0" y1="0" x2="1" y2="0" gradientUnits="userSpaceOnUse" gradientTransform="matrix(496.471865,496.471865,-496.471865,496.471865,2092.548734,1818.592407)"><stop offset="0" style="stop-color:#0d0551;stop-opacity:1"/><stop offset="1" style="stop-color:#9584b3;stop-opacity:1"/></linearGradient><linearGradient id="_Linear6" x1="0" y1="0" x2="1" y2="0" gradientUnits="userSpaceOnUse" gradientTransform="matrix(496.471865,496.471865,-496.471865,496.471865,2092.548734,1818.592407)"><stop offset="0" style="stop-color:#0d0551;stop-opacity:1"/><stop offset="1" style="stop-color:#9584b3;stop-opacity:1"/></linearGradient><linearGradient id="_Linear7" x1="0" y1="0" x2="1" y2="0" gradientUnits="userSpaceOnUse" gradientTransform="matrix(496.471865,496.471865,-496.471865,496.471865,2092.548734,1818.592407)"><stop offset="0" style="stop-color:#0d0551;stop-opacity:1"/><stop offset="1" style="stop-color:#9584b3;stop-opacity:1"/></linearGradient><linearGradient id="_Linear8" x1="0" y1="0" x2="1" y2="0" gradientUnits="userSpaceOnUse" gradientTransform="matrix(496.471865,496.471865,-496.471865,496.471865,2092.548734,1818.592407)"><stop offset="0" style="stop-color:#0d0551;stop-opacity:1"/><stop offset="1" style="stop-color:#9584b3;stop-opacity:1"/></linearGradient><linearGradient id="_Linear9" x1="0" y1="0" x2="1" y2="0" gradientUnits="userSpaceOnUse" gradientTransform="matrix(496.471865,496.471865,-496.471865,496.471865,2092.548734,1818.592407)"><stop offset="0" style="stop-color:#0d0551;stop-opacity:1"/><stop offset="1" style="stop-color:#9584b3;stop-opacity:1"/></linearGradient><linearGradient id="_Linear10" x1="0" y1="0" x2="1" y2="0" gradientUnits="userSpaceOnUse" gradientTransform="matrix(496.471865,496.471865,-496.471865,496.471865,2092.548734,1818.592407)"><stop offset="0" style="stop-color:#0d0551;stop-opacity:1"/><stop offset="1" style="stop-color:#9584b3;stop-opacity:1"/></linearGradient><linearGradient id="_Linear11" x1="0" y1="0" x2="1" y2="0" gradientUnits="userSpaceOnUse" gradientTransform="matrix(496.471865,496.471865,-496.471865,496.471865,2092.548734,1818.592407)"><stop offset="0" style="stop-color:#0d0551;stop-opacity:1"/><stop offset="1" style="stop-color:#9584b3;stop-opacity:1"/></linearGradient><linearGradient id="_Linear12" x1="0" y1="0" x2="1" y2="0" gradientUnits="userSpaceOnUse" gradientTransform="matrix(521.046577,980.312478,-980.312478,521.046577,2059.575061,861.016437)"><stop offset="0" style="stop-color:#e2c479;stop-opacity:1"/><stop offset="0.18" style="stop-color:#debd68;stop-opacity:1"/><stop offset="0.41" style="stop-color:#dbb658;stop-opacity:1"/><stop offset="0.68" style="stop-color:#c5a34f;stop-opacity:1"/><stop offset="1" style="stop-color:#af9146;stop-opacity:1"/></linearGradient></defs></svg>