<svg width="27" height="24" viewBox="0 0 27 24" fill="none" xmlns="http://www.w3.org/2000/svg">
<g clip-path="url(#clip0_2566_9279)">
<path d="M26.9482 5.54199L17.478 13.96C16.422 14.8962 14.9915 15.422 13.5 15.422C12.0085 15.422 10.578 14.8962 9.522 13.96L0.05175 5.54199C0.036 5.69999 0 5.84299 0 5.99999V18C0.00178634 19.3256 0.594992 20.5964 1.6495 21.5338C2.704 22.4711 4.13371 22.9984 5.625 23H21.375C22.8663 22.9984 24.296 22.4711 25.3505 21.5338C26.405 20.5964 26.9982 19.3256 27 18V5.99999C27 5.84299 26.964 5.69999 26.9482 5.54199Z" fill="white"/>
<path d="M15.8872 12.546L26.1629 3.411C25.6651 2.67732 24.963 2.07004 24.1244 1.64773C23.2857 1.22542 22.3388 1.00234 21.3749 1H5.62491C4.66104 1.00234 3.7141 1.22542 2.87544 1.64773C2.03679 2.07004 1.3347 2.67732 0.836914 3.411L11.1127 12.546C11.7467 13.1073 12.6051 13.4225 13.4999 13.4225C14.3948 13.4225 15.2531 13.1073 15.8872 12.546Z" fill="white"/>
</g>
<defs>
<clipPath id="clip0_2566_9279">
<rect width="27" height="24" fill="white"/>
</clipPath>
</defs>
</svg>
