<svg width="22" height="22" viewBox="0 0 22 22" fill="none" xmlns="http://www.w3.org/2000/svg">
<path d="M21.082 10.0827C20.8385 10.0827 20.605 9.98619 20.4329 9.81432C20.2607 9.64245 20.164 9.40934 20.164 9.16628C20.1621 7.22238 19.3877 5.35865 18.0108 3.98411C16.634 2.60956 14.7672 1.83649 12.82 1.83455C12.5765 1.83455 12.343 1.73799 12.1709 1.56612C11.9987 1.39425 11.902 1.16114 11.902 0.91808C11.902 0.675017 11.9987 0.441911 12.1709 0.27004C12.343 0.0981688 12.5765 0.00161268 12.82 0.00161268C15.2539 0.00428106 17.5873 0.970699 19.3083 2.68883C21.0293 4.40696 21.9973 6.73648 22 9.16628C22 9.40934 21.9033 9.64245 21.7311 9.81432C21.559 9.98619 21.3255 10.0827 21.082 10.0827ZM18.328 9.16628C18.328 7.70791 17.7477 6.30927 16.7147 5.27804C15.6818 4.24682 14.2808 3.66748 12.82 3.66748C12.5765 3.66748 12.343 3.76404 12.1709 3.93591C11.9987 4.10778 11.902 4.34088 11.902 4.58395C11.902 4.82701 11.9987 5.06012 12.1709 5.23199C12.343 5.40386 12.5765 5.50041 12.82 5.50041C13.7939 5.50041 14.7279 5.88664 15.4165 6.57412C16.1051 7.2616 16.492 8.19403 16.492 9.16628C16.492 9.40934 16.5887 9.64245 16.7609 9.81432C16.933 9.98619 17.1665 10.0827 17.41 10.0827C17.6535 10.0827 17.887 9.98619 18.0591 9.81432C18.2313 9.64245 18.328 9.40934 18.328 9.16628ZM20.332 20.3142L21.1674 19.3528C21.6991 18.8203 21.9977 18.099 21.9977 17.3471C21.9977 16.5952 21.6991 15.874 21.1674 15.3414C21.1389 15.313 18.9302 13.6166 18.9302 13.6166C18.4001 13.1129 17.696 12.8324 16.9641 12.8334C16.2323 12.8344 15.5289 13.1169 15.0002 13.6221L13.2505 15.094C11.8223 14.5039 10.5249 13.6379 9.43284 12.5458C8.34079 11.4537 7.4756 10.1569 6.88696 8.73004L8.35577 6.98876C8.86224 6.46103 9.14552 5.75874 9.14671 5.02789C9.14791 4.29703 8.86693 3.59382 8.36219 3.06445C8.36219 3.06445 6.66114 0.862175 6.63268 0.833765C6.10892 0.307482 5.39878 0.00804812 4.6557 0.000159876C3.91262 -0.00772837 3.19626 0.276562 2.66141 0.791607L1.60571 1.70807C-4.63118 8.93167 8.79916 22.236 16.2735 21.9968C17.0283 22.0012 17.7763 21.8545 18.4733 21.5655C19.1704 21.2765 19.8024 20.8511 20.332 20.3142Z" fill="white"/>
</svg>
