<svg width="22" height="27" viewBox="0 0 22 27" fill="none" xmlns="http://www.w3.org/2000/svg">
<path d="M11 0C8.0836 0.00320276 5.28757 1.16316 3.22536 3.22536C1.16316 5.28757 0.00320276 8.0836 0 11C0 16.8102 9.24 24.7863 10.2894 25.6773L11 26.2779L11.7106 25.6773C12.76 24.7863 22 16.8102 22 11C21.9968 8.0836 20.8368 5.28757 18.7746 3.22536C16.7124 1.16316 13.9164 0.00320276 11 0ZM11 16.5C9.9122 16.5 8.84883 16.1774 7.94436 15.5731C7.03989 14.9687 6.33494 14.1098 5.91866 13.1048C5.50238 12.0998 5.39346 10.9939 5.60568 9.927C5.8179 8.86011 6.34172 7.8801 7.11091 7.11091C7.8801 6.34172 8.86011 5.8179 9.927 5.60568C10.9939 5.39346 12.0998 5.50238 13.1048 5.91866C14.1098 6.33494 14.9687 7.03989 15.5731 7.94436C16.1774 8.84883 16.5 9.9122 16.5 11C16.4983 12.4582 15.9182 13.8561 14.8872 14.8872C13.8561 15.9182 12.4582 16.4983 11 16.5Z" fill="white"/>
</svg>
